# AST/ASF file generated using VICON BodyLanguage
# -----------------------------------------------
:version 1.10
:name VICON
:units
  mass 1.0
  length 0.45
  angle deg
:documentation
   .ast/.asf automatically generated from VICON data using
   VICON BodyBuilder and BodyLanguage model FoxedUp or BRILLIANT.MOD
:root
   order TX TY TZ RX RY RZ
   axis XYZ
   position 0 0 0  
   orientation 0 0 0 
:bonedata
  begin
     id 1 
     name lhipjoint
     direction 0.677091 -0.635792 0.370561 
     length 2.74323 
     axis 0 0 0  XYZ
  end
  begin
     id 2 
     name lfemur
     direction 0.34202 -0.939693 0  
     length 7.44995  
     axis 0 0 20  XYZ
    dof rx ry rz
    limits (-160.0 20.0)
           (-70.0 70.0)
           (-60.0 70.0)
  end
  begin
     id 3 
     name ltibia
     direction 0.34202 -0.939693 0   
     length 7.34467   
     axis 0 0 20   XYZ
    dof rx
    limits (-10.0 170.0)
  end
  begin
     id 4 
     name lfoot
     direction 0.101953 -0.280114 0.954537   
     length 1.72105   
     axis -90 7.62852e-016 20   XYZ
    dof rx rz
    limits (-45.0 90.0)
           (-70.0 20.0)
  end
  begin
     id 5 
     name ltoes
     direction 1.53537e-011 -4.21915e-011 1   
     length 0.865872   
     axis -90 7.62852e-016 20   XYZ
    dof rx
    limits (-90.0 20.0)
  end
  begin
     id 6 
     name rhipjoint
     direction -0.695735 -0.620586 0.361699   
     length 2.81045  
     axis 0 0 0  XYZ 
  end
  begin
     id 7 
     name rfemur
     direction -0.34202 -0.939693 0   
     length 7.29387   
     axis 0 0 -20   XYZ
    dof rx ry rz
    limits (-160.0 20.0)
           (-70.0 70.0)
           (-70.0 60.0)
  end
  begin
     id 8 
     name rtibia
     direction -0.34202 -0.939693 0   
     length 7.44935   
     axis 0 0 -20   XYZ
    dof rx
    limits (-10.0 170.0)
 end
 begin
     id 9 
     name rfoot
     direction -0.104163 -0.286184 0.952496   
     length 1.77731  
     axis -90 -7.62852e-016 -20   XYZ
    dof rx rz
    limits (-45.0 90.0)
           (-20.0 70.0)
  end
  begin
     id 10 
     name rtoes
     direction -1.5355e-011 -4.21888e-011 1   
     length 0.892424   
     axis -90 -7.62852e-016 -20   XYZ
    dof rx
    limits (-90.0 20.0)
  end
  begin
     id 11 
     name lowerback
     direction 0.0100202 0.997226 -0.0737589   
     length 2.16892   
     axis 0 0 0   XYZ
    dof rx ry rz
    limits (-20.0 45.0)
           (-30.0 30.0)
           (-30.0 30.0)
  end
  begin
     id 12 
     name upperback
     direction 0.00432398 0.999988 -0.00215019   
     length 2.17326   
     axis 0 0 0   XYZ
    dof rx ry rz
    limits (-20.0 45.0)
           (-30.0 30.0)
           (-30.0 30.0)
  end
  begin
     id 13 
     name thorax
     direction -0.00195047 0.999485 0.0320434   
     length 2.18139   
     axis 0 0 0   XYZ
    dof rx ry rz
    limits (-20.0 45.0)
           (-30.0 30.0)
           (-30.0 30.0)
  end
  begin
     id 14 
     name lowerneck
     direction 0.00782762 0.986241 0.165128   
     length 1.88415   
     axis 0 0 0   XYZ
    dof rx ry rz
    limits (-20.0 45.0)
           (-30.0 30.0)
           (-30.0 30.0)
  end
  begin
     id 15 
     name upperneck
     direction 0.00988667 0.981098 -0.193258   
     length 1.9242   
     axis 0 0 0   XYZ
    dof rx ry rz
    limits (-20.0 45.0)
           (-30.0 30.0)
           (-30.0 30.0)
  end
  begin
     id 16
     name head
     direction 0.00252199 0.996513 -0.0833958  
     length 1.93887  
     axis 0 0 0   XYZ
    dof rx ry rz
    limits (-20.0 45.0)
           (-30.0 30.0)
           (-30.0 30.0)
  end
  begin
     id 17 
     name lclavicle
     direction 0.929492 0.368193 -0.0218667  
     length 3.5955  
     axis 0 0 0   XYZ
    dof ry rz
    limits (-20.0 10.0)
           (0.0 20.0)
  end
  begin
     id 18 
     name lhumerus
     direction 1 -4.48972e-011 1.41911e-027   
     length 5.2795   
     axis 180 -30 -90   XYZ
    dof rx ry rz
    limits (-60.0 90.0)
           (-90.0 90.0)
           (-90.0 90.0)
  end
  begin
     id 19
     name lradius
     direction 1 -4.48963e-011 7.05772e-027   
     length 3.53504   
     axis 180 -30 -90   XYZ
    dof rx
    limits (-10.0 170.0)
  end
  begin
     id 20
     name lwrist
     direction 1 -4.48957e-011 9.54866e-027   
     length 1.76752   
     axis -7.69462e-015 90 90   XYZ
    dof ry
    limits (-180.0 0.0)
 end
  begin
     id 21 
     name lhand
     direction 1 -4.48979e-011 1.90973e-026   
     length 0.667948   
     axis -1.21857e-014 90 90   XYZ
    dof rx rz
    limits (-90.0 90.0)
           (-45.0 45.0)
  end
  begin
     id 22 
     name lfingers
     direction 1 -4.48987e-011 3.81946e-026   
     length 0.538517   
     axis -2.43714e-014 90 90   XYZ
    dof rx
    limits (0.0 90.0)
  end
  begin
     id 23
     name lthumb
     direction 0.707107 -6.34962e-011 0.707107   
     length 0.773206   
     axis -90 45 2.85299e-015   XYZ
    dof rx rz
    limits (-45.0 45.0)
           (-45.0 45.0)
  end
  begin
     id 24 
     name rclavicle
     direction -0.898763 0.414256 -0.143584   
     length 3.5176  
     axis 0 0 0   XYZ 
    dof ry rz
    limits (-10.0 20.0)
           (-20.0 0.0)
  end
  begin
     id 25 
     name rhumerus
     direction -1 -4.48971e-011 1.129e-027  
     length 5.25035   
     axis 180 30 90   XYZ
    dof rx ry rz
    limits (-90.0 60.0)
           (-90.0 90.0)
           (-90.0 90.0)
  end
  begin
     id 26 
     name rradius
     direction -1 -4.48955e-011 6.34664e-027   
     length 3.58884   
     axis 180 30 90   XYZ
    dof rx
    limits (-10.0 170.0)
  end
  begin
     id 27 
     name rwrist
     direction -1 -4.48966e-011 9.54866e-027   
     length 1.79442   
     axis -7.69462e-015 -90 -90   XYZ
    dof ry
    limits (-180.0 0.0)
  end
  begin
     id 28
     name rhand
     direction -1 -4.48973e-011 1.90973e-026   
     length 0.779235   
     axis -1.21857e-014 -90 -90   XYZ
    dof rx rz
    limits (-90.0 90.0)
           (-45.0 45.0)
  end
  begin
     id 29
     name rfingers
     direction -1 -4.48984e-011 3.81946e-026   
     length 0.62824   
     axis -2.43714e-014 -90 -90   XYZ
    dof rx
    limits (0.0 90.0)
  end
  begin
     id 30
     name rthumb
     direction -0.707107 -6.34968e-011 0.707107   
     length 0.90203   
     axis -90 -45 -2.85299e-015   XYZ
    dof rx rz
    limits (-45.0 45.0)
           (-45.0 45.0)
  end
:hierarchy
  begin
    root lhipjoint rhipjoint lowerback
    lhipjoint lfemur
    lfemur ltibia
    ltibia lfoot
    lfoot ltoes
    rhipjoint rfemur
    rfemur rtibia
    rtibia rfoot
    rfoot rtoes
    lowerback upperback
    upperback thorax
    thorax lowerneck lclavicle rclavicle
    lowerneck upperneck
    upperneck head
    lclavicle lhumerus
    lhumerus lradius
    lradius lwrist
    lwrist lhand lthumb
    lhand lfingers
    rclavicle rhumerus
    rhumerus rradius
    rradius rwrist
    rwrist rhand rthumb
    rhand rfingers
  end

#!OML:ASF I:\Random Stuff\random\construction\7_22_03\Session 2\subj1.ASF
:FULLY-SPECIFIED
:DEGREES
40
root -2.645 17.6893 0.610586 -35.1774 87.0485 -39.0223
lowerback -2.56751 -1.45233 0.424206
upperback -4.30768 -1.82293 1.41235
thorax -2.95434 -0.863012 1.21283
lowerneck -22.1776 -8.35698 -5.92601
upperneck 23.4594 -11.2229 5.55234
head 12.0598 -4.78634 1.13362
rclavicle -1.2598e-014 7.95139e-015
rhumerus 24.4721 7.61108 -71.1192
rradius 88.9506
rwrist -30.5601
rhand -37.188 17.2419
rfingers 7.12502
rthumb -10.256 -12.488
lclavicle -1.2598e-014 7.95139e-015
lhumerus -33.0887 2.92333 88.0769
lradius 25.8994
lwrist 27.6789
lhand -20.4599 57.5568
lfingers 7.12502
lthumb 5.89581 87.4548
rfemur -4.60542 27.1 20.1992
rtibia 9.70478
rfoot -3.94155 -34.7749
rtoes -13.2397
lfemur -7.42107 -28.488 -14.3013
ltibia 18.5442
lfoot -16.0585 31.334
ltoes -27.6526
41
root -2.6452 17.6913 0.593251 -32.4771 87.1095 -36.3669
lowerback -2.67593 -1.41443 0.260552
upperback -4.33301 -1.77189 1.3829
thorax -2.91638 -0.832683 1.27161
lowerneck -22.2806 -8.27157 -5.83349
upperneck 23.4533 -11.0768 5.37321
head 12.0487 -4.73584 1.07618
rclavicle -2.07481e-014 6.36111e-015
rhumerus 25.1604 7.56291 -70.9557
rradius 88.8365
rwrist -30.6577
rhand -37.5566 17.7345
rfingers 7.12502
rthumb -10.6116 -11.9776
lclavicle -2.07481e-014 6.36111e-015
lhumerus -33.1455 2.97249 88.1292
lradius 25.7644
lwrist 27.7878
lhand -20.6635 57.6439
lfingers 7.12502
lthumb 5.69929 87.5473
rfemur -4.68518 27.1184 19.9425
rtibia 9.7347
rfoot -4.09259 -34.8016
rtoes -12.8573
lfemur -7.48137 -28.3557 -14.4871
ltibia 18.5398
lfoot -15.9846 31.2133
ltoes -27.6199
42
root -2.64263 17.6885 0.581711 -31.7489 87.0485 -35.6278
lowerback -2.73608 -1.33998 0.222045
upperback -4.362 -1.67174 1.36058
thorax -2.91409 -0.781249 1.26933
lowerneck -22.3208 -8.2136 -5.7406
upperneck 23.4461 -10.9956 5.27288
head 12.0352 -4.70449 1.03815
rclavicle -6.63444e-015 5.36719e-015
rhumerus 25.7827 7.35107 -70.8586
rradius 88.7518
rwrist -30.8955
rhand -37.8997 17.9456
rfingers 7.12502
rthumb -10.9425 -11.7493
lclavicle -6.63444e-015 5.36719e-015
lhumerus -33.129 3.20017 87.9968
lradius 25.3909
lwrist 27.5521
lhand -20.7305 57.636
lfingers 7.12502
lthumb 5.63452 87.5411
rfemur -4.73091 27.1868 19.9003
rtibia 9.83675
rfoot -4.2803 -34.8292
rtoes -12.6077
lfemur -7.43103 -28.5054 -14.5543
ltibia 18.537
lfoot -15.9886 31.4493
ltoes -27.9078
43
root -2.63658 17.6848 0.576574 -32.6741 86.9507 -36.5357
lowerback -2.79696 -1.27038 0.257605
upperback -4.40119 -1.5775 1.35133
thorax -2.92362 -0.734459 1.23931
lowerneck -22.3388 -8.18736 -5.78054
upperneck 23.5092 -10.9776 5.37901
head 12.0724 -4.68294 1.08596
rclavicle 3.23398e-014 1.39149e-015
rhumerus 26.3942 7.15448 -70.7021
rradius 88.7338
rwrist -31.4016
rhand -38.132 17.9603
rfingers 7.12502
rthumb -11.1666 -11.7225
lclavicle 3.23398e-014 1.39149e-015
lhumerus -33.1152 3.44236 87.8072
lradius 24.9633
lwrist 27.3015
lhand -20.8046 57.3647
lfingers 7.12502
lthumb 5.56303 87.2717
rfemur -4.79902 27.2441 19.9946
rtibia 10.0178
rfoot -4.33888 -34.8506
rtoes -13.0084
lfemur -7.3733 -28.6164 -14.5052
ltibia 18.5403
lfoot -15.9968 31.64
ltoes -28.1997
44
root -2.63283 17.6854 0.56344 -31.4468 86.9958 -35.3875
lowerback -2.86019 -1.23704 0.238399
upperback -4.47581 -1.53159 1.28354
thorax -2.96759 -0.710784 1.18019
lowerneck -22.421 -8.1674 -5.75294
upperneck 23.573 -10.9732 5.42728
head 12.1146 -4.66776 1.09716
rclavicle -7.72775e-015 1.98785e-015
rhumerus 27.0616 6.99323 -70.5407
rradius 88.7461
rwrist -32.0084
rhand -38.2666 17.2947
rfingers 7.12502
rthumb -11.2964 -12.3811
lclavicle -7.72775e-015 1.98785e-015
lhumerus -33.1959 3.47187 87.7032
lradius 24.7421
lwrist 27.289
lhand -20.8499 57.1706
lfingers 7.12502
lthumb 5.51931 87.0787
rfemur -4.97254 27.2263 19.8269
rtibia 10.1849
rfoot -4.32376 -34.8632
rtoes -13.4372
lfemur -7.46121 -28.6166 -14.5948
ltibia 18.5941
lfoot -16.2973 31.5299
ltoes -27.3832
45
root -2.63128 17.6875 0.542701 -29.2425 87.0789 -33.305
lowerback -2.92706 -1.19489 0.239042
upperback -4.53733 -1.4749 1.20553
thorax -2.99683 -0.68277 1.09923
lowerneck -22.4079 -8.17393 -5.8683
upperneck 23.4237 -10.9905 5.62564
head 12.0768 -4.66342 1.18687
rclavicle 1.3418e-015 7.95139e-016
rhumerus 27.8897 6.81415 -70.3017
rradius 88.6189
rwrist -32.3426
rhand -38.1867 16.7431
rfingers 7.12502
rthumb -11.2194 -12.9369
lclavicle 1.3418e-015 7.95139e-016
lhumerus -33.2608 3.37628 87.7218
lradius 24.6407
lwrist 27.3766
lhand -20.8445 57.2288
lfingers 7.12502
lthumb 5.52445 87.1367
rfemur -5.19307 27.1772 19.5413
rtibia 10.3586
rfoot -4.50437 -34.8608
rtoes -13.2417
lfemur -7.58827 -28.6514 -14.7529
ltibia 18.6637
lfoot -16.7792 31.3775
ltoes -25.961
